<mxfile host="app.diagrams.net" modified="2022-05-31T09:20:07.559Z" agent="5.0 (X11)" etag="fnycmE_OK8ziYnBSf3Ux" version="17.1.2" type="github">
  <diagram id="skwW-lUM1dJKcZQGYylQ" name="Page-1">
    <mxGraphModel dx="1230" dy="661" grid="1" gridSize="10" guides="1" tooltips="1" connect="1" arrows="1" fold="1" page="1" pageScale="1" pageWidth="1169" pageHeight="1654" math="0" shadow="0">
      <root>
        <mxCell id="0" />
        <mxCell id="1" parent="0" />
        <mxCell id="esAIJmW3SCN5sNdFw8TO-30" value="" style="rounded=0;whiteSpace=wrap;html=1;fillColor=#F7F7F7;strokeColor=#CCCCCC;" parent="1" vertex="1">
          <mxGeometry x="280" y="130" width="600" height="490" as="geometry" />
        </mxCell>
        <mxCell id="esAIJmW3SCN5sNdFw8TO-1" value="&lt;div&gt;Foo&lt;/div&gt;" style="rounded=1;whiteSpace=wrap;html=1;fillColor=#fff2cc;strokeColor=#d6b656;shadow=0;" parent="1" vertex="1">
          <mxGeometry x="490" y="357" width="175" height="60" as="geometry" />
        </mxCell>
        <mxCell id="esAIJmW3SCN5sNdFw8TO-2" value="&lt;div&gt;BarData&lt;/div&gt;" style="rounded=1;whiteSpace=wrap;html=1;fillColor=#fff2cc;strokeColor=#d6b656;sketch=0;fontColor=#01010D;" parent="1" vertex="1">
          <mxGeometry x="690" y="290" width="90" height="40" as="geometry" />
        </mxCell>
        <mxCell id="esAIJmW3SCN5sNdFw8TO-3" value="&lt;div&gt;Bar&lt;/div&gt;" style="rounded=1;whiteSpace=wrap;html=1;fillColor=#fff2cc;strokeColor=#d6b656;" parent="1" vertex="1">
          <mxGeometry x="590" y="290" width="75" height="40" as="geometry" />
        </mxCell>
        <mxCell id="esAIJmW3SCN5sNdFw8TO-4" value="&lt;div&gt;FooData&lt;/div&gt;" style="rounded=1;whiteSpace=wrap;html=1;fillColor=#fff2cc;strokeColor=#d6b656;" parent="1" vertex="1">
          <mxGeometry x="690" y="365.5" width="90" height="43" as="geometry" />
        </mxCell>
        <mxCell id="esAIJmW3SCN5sNdFw8TO-5" value="" style="endArrow=blockThin;html=1;rounded=0;exitX=0.5;exitY=1;exitDx=0;exitDy=0;endFill=1;strokeWidth=1;entryX=0.75;entryY=0;entryDx=0;entryDy=0;" parent="1" source="esAIJmW3SCN5sNdFw8TO-3" target="esAIJmW3SCN5sNdFw8TO-1" edge="1">
          <mxGeometry width="50" height="50" relative="1" as="geometry">
            <mxPoint x="498" y="287" as="sourcePoint" />
            <mxPoint x="610" y="447" as="targetPoint" />
          </mxGeometry>
        </mxCell>
        <mxCell id="esAIJmW3SCN5sNdFw8TO-6" value="" style="endArrow=blockThin;html=1;rounded=0;exitX=0;exitY=0.5;exitDx=0;exitDy=0;entryX=1;entryY=0.5;entryDx=0;entryDy=0;endFill=1;strokeColor=#01010D;" parent="1" source="esAIJmW3SCN5sNdFw8TO-2" target="esAIJmW3SCN5sNdFw8TO-3" edge="1">
          <mxGeometry width="50" height="50" relative="1" as="geometry">
            <mxPoint x="535" y="297" as="sourcePoint" />
            <mxPoint x="535" y="367" as="targetPoint" />
          </mxGeometry>
        </mxCell>
        <mxCell id="esAIJmW3SCN5sNdFw8TO-7" value="" style="endArrow=blockThin;html=1;rounded=0;exitX=0;exitY=0.5;exitDx=0;exitDy=0;entryX=1;entryY=0.5;entryDx=0;entryDy=0;endFill=1;strokeWidth=1;" parent="1" source="esAIJmW3SCN5sNdFw8TO-4" target="esAIJmW3SCN5sNdFw8TO-1" edge="1">
          <mxGeometry width="50" height="50" relative="1" as="geometry">
            <mxPoint x="545" y="307" as="sourcePoint" />
            <mxPoint x="545" y="377" as="targetPoint" />
          </mxGeometry>
        </mxCell>
        <mxCell id="esAIJmW3SCN5sNdFw8TO-8" value="&lt;div&gt;Calculator&lt;/div&gt;" style="rounded=1;whiteSpace=wrap;html=1;fillColor=#fff2cc;strokeColor=#d6b656;shadow=0;glass=0;sketch=0;fontColor=#01010D;" parent="1" vertex="1">
          <mxGeometry x="530" y="210" width="70" height="43" as="geometry" />
        </mxCell>
        <mxCell id="esAIJmW3SCN5sNdFw8TO-9" value="" style="endArrow=blockThin;html=1;rounded=0;elbow=vertical;entryX=0.5;entryY=0;entryDx=0;entryDy=0;endFill=1;strokeWidth=1;exitX=0.25;exitY=1;exitDx=0;exitDy=0;strokeColor=#01010D;" parent="1" source="esAIJmW3SCN5sNdFw8TO-8" target="esAIJmW3SCN5sNdFw8TO-26" edge="1">
          <mxGeometry width="50" height="50" relative="1" as="geometry">
            <mxPoint x="510" y="220" as="sourcePoint" />
            <mxPoint x="535" y="367" as="targetPoint" />
          </mxGeometry>
        </mxCell>
        <mxCell id="esAIJmW3SCN5sNdFw8TO-12" value="" style="shape=datastore;whiteSpace=wrap;html=1;fillColor=#A9C4EB;sketch=0;" parent="1" vertex="1">
          <mxGeometry x="950" y="291" width="60" height="126" as="geometry" />
        </mxCell>
        <mxCell id="esAIJmW3SCN5sNdFw8TO-13" value="" style="rounded=1;whiteSpace=wrap;html=1;fillColor=#A9C4EB;sketch=0;" parent="1" vertex="1">
          <mxGeometry x="817.5" y="284.5" width="30" height="125.5" as="geometry" />
        </mxCell>
        <mxCell id="esAIJmW3SCN5sNdFw8TO-14" value="" style="endArrow=blockThin;html=1;rounded=0;entryX=1;entryY=0.5;entryDx=0;entryDy=0;endFill=1;exitX=0.073;exitY=1.083;exitDx=0;exitDy=0;exitPerimeter=0;strokeColor=#01010D;" parent="1" source="esAIJmW3SCN5sNdFw8TO-25" target="esAIJmW3SCN5sNdFw8TO-2" edge="1">
          <mxGeometry width="50" height="50" relative="1" as="geometry">
            <mxPoint x="850" y="300" as="sourcePoint" />
            <mxPoint x="810" y="257" as="targetPoint" />
          </mxGeometry>
        </mxCell>
        <mxCell id="esAIJmW3SCN5sNdFw8TO-15" value="" style="endArrow=blockThin;html=1;rounded=0;entryX=1;entryY=0.5;entryDx=0;entryDy=0;endFill=1;strokeColor=#01010D;" parent="1" target="esAIJmW3SCN5sNdFw8TO-4" edge="1">
          <mxGeometry width="50" height="50" relative="1" as="geometry">
            <mxPoint x="820" y="387" as="sourcePoint" />
            <mxPoint x="820" y="267" as="targetPoint" />
          </mxGeometry>
        </mxCell>
        <mxCell id="esAIJmW3SCN5sNdFw8TO-16" value="&lt;div&gt;Foo&lt;/div&gt;&lt;div&gt;Controller&lt;/div&gt;" style="rounded=1;whiteSpace=wrap;html=1;fillColor=#fff2cc;strokeColor=#d6b656;sketch=0;" parent="1" vertex="1">
          <mxGeometry x="380" y="352.5" width="70" height="60" as="geometry" />
        </mxCell>
        <mxCell id="esAIJmW3SCN5sNdFw8TO-17" value="HTTP Server" style="rounded=1;whiteSpace=wrap;html=1;fillColor=#A9C4EB;sketch=0;fontColor=#01010D;" parent="1" vertex="1">
          <mxGeometry x="280" y="316.5" width="50" height="130" as="geometry" />
        </mxCell>
        <mxCell id="esAIJmW3SCN5sNdFw8TO-18" value="&lt;div&gt;HTTP&lt;br&gt;&lt;/div&gt;&lt;div&gt;Client&lt;/div&gt;" style="rounded=1;whiteSpace=wrap;html=1;fillColor=#A9C4EB;sketch=0;fontColor=#01010D;" parent="1" vertex="1">
          <mxGeometry x="280" y="476.5" width="50" height="113" as="geometry" />
        </mxCell>
        <mxCell id="esAIJmW3SCN5sNdFw8TO-19" value="&lt;div&gt;&lt;br&gt;&lt;/div&gt;" style="rounded=1;whiteSpace=wrap;html=1;fillColor=#A9C4EB;arcSize=7;sketch=0;" parent="1" vertex="1">
          <mxGeometry x="850" y="284.5" width="30" height="125.5" as="geometry" />
        </mxCell>
        <mxCell id="esAIJmW3SCN5sNdFw8TO-20" value="driver" style="text;html=1;strokeColor=none;fillColor=none;align=center;verticalAlign=middle;whiteSpace=wrap;rounded=0;rotation=90;fontColor=#01010D;" parent="1" vertex="1">
          <mxGeometry x="835" y="330" width="60" height="30" as="geometry" />
        </mxCell>
        <mxCell id="esAIJmW3SCN5sNdFw8TO-21" value="" style="endArrow=blockThin;startArrow=classicThin;html=1;rounded=0;elbow=vertical;entryX=0;entryY=0.3;entryDx=0;entryDy=0;exitX=0.25;exitY=0;exitDx=0;exitDy=0;fillColor=#e1d5e7;strokeColor=#9673a6;strokeWidth=2;dashed=1;startFill=0;endFill=0;" parent="1" source="esAIJmW3SCN5sNdFw8TO-20" target="esAIJmW3SCN5sNdFw8TO-12" edge="1">
          <mxGeometry width="50" height="50" relative="1" as="geometry">
            <mxPoint x="520" y="537.5" as="sourcePoint" />
            <mxPoint x="570" y="487.5" as="targetPoint" />
          </mxGeometry>
        </mxCell>
        <mxCell id="esAIJmW3SCN5sNdFw8TO-22" value="&lt;div&gt;database&lt;br&gt;&lt;/div&gt;&lt;div&gt;driver&lt;/div&gt;&lt;div&gt;protocol&lt;br&gt;&lt;/div&gt;" style="edgeLabel;html=1;align=center;verticalAlign=middle;resizable=0;points=[];fontColor=#01010D;" parent="esAIJmW3SCN5sNdFw8TO-21" vertex="1" connectable="0">
          <mxGeometry x="0.25" relative="1" as="geometry">
            <mxPoint x="-10" y="36" as="offset" />
          </mxGeometry>
        </mxCell>
        <mxCell id="esAIJmW3SCN5sNdFw8TO-23" value="" style="endArrow=blockThin;startArrow=blockThin;html=1;rounded=0;elbow=vertical;fillColor=#e1d5e7;strokeColor=#9673a6;entryX=0;entryY=0.5;entryDx=0;entryDy=0;edgeStyle=orthogonalEdgeStyle;curved=1;startFill=0;endFill=0;strokeWidth=2;dashed=1;exitX=0;exitY=0.5;exitDx=0;exitDy=0;fontColor=#01010D;" parent="1" source="esAIJmW3SCN5sNdFw8TO-18" target="esAIJmW3SCN5sNdFw8TO-17" edge="1">
          <mxGeometry width="50" height="50" relative="1" as="geometry">
            <mxPoint x="250" y="596.5" as="sourcePoint" />
            <mxPoint x="300" y="415.5" as="targetPoint" />
            <Array as="points">
              <mxPoint x="220" y="533.5" />
              <mxPoint x="220" y="381.5" />
            </Array>
          </mxGeometry>
        </mxCell>
        <mxCell id="esAIJmW3SCN5sNdFw8TO-24" value="" style="endArrow=blockThin;startArrow=blockThin;html=1;rounded=0;elbow=vertical;entryX=0;entryY=0.5;entryDx=0;entryDy=0;strokeColor=#C3ABD0;strokeWidth=2;startFill=0;endFill=0;exitX=1;exitY=0.5;exitDx=0;exitDy=0;fontColor=#01010D;" parent="1" source="esAIJmW3SCN5sNdFw8TO-16" target="esAIJmW3SCN5sNdFw8TO-1" edge="1">
          <mxGeometry width="50" height="50" relative="1" as="geometry">
            <mxPoint x="430" y="390" as="sourcePoint" />
            <mxPoint x="670" y="410" as="targetPoint" />
          </mxGeometry>
        </mxCell>
        <mxCell id="esAIJmW3SCN5sNdFw8TO-25" value="database api" style="text;html=1;strokeColor=none;fillColor=none;align=center;verticalAlign=middle;whiteSpace=wrap;rounded=0;rotation=90;fontColor=#01010D;" parent="1" vertex="1">
          <mxGeometry x="794" y="326" width="75" height="30" as="geometry" />
        </mxCell>
        <mxCell id="esAIJmW3SCN5sNdFw8TO-26" value="&lt;div&gt;Baz&lt;/div&gt;" style="rounded=1;whiteSpace=wrap;html=1;fillColor=#fff2cc;strokeColor=#d6b656;sketch=0;shadow=0;" parent="1" vertex="1">
          <mxGeometry x="510" y="290" width="60" height="40" as="geometry" />
        </mxCell>
        <mxCell id="esAIJmW3SCN5sNdFw8TO-27" value="" style="endArrow=blockThin;html=1;rounded=0;strokeColor=#01010D;strokeWidth=1;elbow=vertical;exitX=0.5;exitY=1;exitDx=0;exitDy=0;endFill=1;entryX=0.25;entryY=0;entryDx=0;entryDy=0;" parent="1" source="esAIJmW3SCN5sNdFw8TO-26" target="esAIJmW3SCN5sNdFw8TO-1" edge="1">
          <mxGeometry width="50" height="50" relative="1" as="geometry">
            <mxPoint x="620" y="460" as="sourcePoint" />
            <mxPoint x="670" y="410" as="targetPoint" />
          </mxGeometry>
        </mxCell>
        <mxCell id="esAIJmW3SCN5sNdFw8TO-29" value="" style="endArrow=blockThin;startArrow=blockThin;html=1;rounded=0;elbow=vertical;exitX=1;exitY=0.5;exitDx=0;exitDy=0;entryX=0;entryY=0.5;entryDx=0;entryDy=0;strokeColor=#C3ABD0;strokeWidth=2;startFill=0;endFill=0;fontColor=#01010D;" parent="1" source="esAIJmW3SCN5sNdFw8TO-17" target="esAIJmW3SCN5sNdFw8TO-16" edge="1">
          <mxGeometry width="50" height="50" relative="1" as="geometry">
            <mxPoint x="320" y="383.17" as="sourcePoint" />
            <mxPoint x="390" y="383.17" as="targetPoint" />
          </mxGeometry>
        </mxCell>
        <mxCell id="esAIJmW3SCN5sNdFw8TO-31" value="&lt;div&gt;FooComponentTest&lt;/div&gt;" style="rounded=1;whiteSpace=wrap;html=1;fillColor=#f8cecc;strokeColor=#b85450;" parent="1" vertex="1">
          <mxGeometry x="490" y="503" width="175" height="60" as="geometry" />
        </mxCell>
        <mxCell id="esAIJmW3SCN5sNdFw8TO-32" value="" style="endArrow=blockThin;startArrow=classicThin;html=1;rounded=0;elbow=vertical;exitX=1;exitY=0.5;exitDx=0;exitDy=0;fillColor=#e1d5e7;strokeColor=#C3ABD0;entryX=0;entryY=0.5;entryDx=0;entryDy=0;startFill=0;endFill=0;strokeWidth=2;fontColor=#01010D;" parent="1" source="esAIJmW3SCN5sNdFw8TO-18" target="esAIJmW3SCN5sNdFw8TO-31" edge="1">
          <mxGeometry width="50" height="50" relative="1" as="geometry">
            <mxPoint x="200" y="392.75" as="sourcePoint" />
            <mxPoint x="210" y="650" as="targetPoint" />
          </mxGeometry>
        </mxCell>
        <mxCell id="z3S-sLbifR9533GlBx9e-1" value="" style="endArrow=blockThin;startArrow=classicThin;html=1;rounded=0;elbow=vertical;exitX=0.5;exitY=1;exitDx=0;exitDy=0;fillColor=#e1d5e7;strokeColor=#C3ABD0;entryX=0.5;entryY=0;entryDx=0;entryDy=0;startFill=0;endFill=0;strokeWidth=2;fontColor=#01010D;" edge="1" parent="1" source="esAIJmW3SCN5sNdFw8TO-1" target="esAIJmW3SCN5sNdFw8TO-31">
          <mxGeometry width="50" height="50" relative="1" as="geometry">
            <mxPoint x="340" y="543" as="sourcePoint" />
            <mxPoint x="500" y="543" as="targetPoint" />
          </mxGeometry>
        </mxCell>
        <mxCell id="z3S-sLbifR9533GlBx9e-4" value="Text" style="text;html=1;strokeColor=none;fillColor=none;align=center;verticalAlign=middle;whiteSpace=wrap;rounded=0;shadow=0;sketch=0;fontColor=#01010D;" vertex="1" parent="1">
          <mxGeometry x="550" y="330" width="60" height="30" as="geometry" />
        </mxCell>
        <mxCell id="z3S-sLbifR9533GlBx9e-5" value="&lt;i&gt;&lt;font style=&quot;font-size: 20px&quot;&gt;Component Test&lt;/font&gt;&lt;/i&gt;" style="text;html=1;strokeColor=none;fillColor=none;align=center;verticalAlign=middle;whiteSpace=wrap;rounded=0;shadow=0;sketch=0;fontColor=#01010D;" vertex="1" parent="1">
          <mxGeometry x="280" y="130" width="170" height="30" as="geometry" />
        </mxCell>
        <mxCell id="z3S-sLbifR9533GlBx9e-6" value="&lt;div align=&quot;left&quot;&gt;&amp;nbsp;Infrastructure libs&lt;br&gt;&lt;/div&gt;" style="rounded=0;whiteSpace=wrap;html=1;fillColor=#A9C4EB;sketch=0;fontColor=#01010D;strokeColor=none;align=left;" vertex="1" parent="1">
          <mxGeometry x="300" y="193" width="130" height="23.5" as="geometry" />
        </mxCell>
        <mxCell id="z3S-sLbifR9533GlBx9e-8" value="&lt;div align=&quot;left&quot;&gt;&amp;nbsp;test doubles&lt;/div&gt;" style="rounded=0;whiteSpace=wrap;html=1;fillColor=#e1d5e7;strokeColor=none;sketch=0;shadow=0;align=left;" vertex="1" parent="1">
          <mxGeometry x="300" y="216.5" width="130" height="23.5" as="geometry" />
        </mxCell>
        <mxCell id="z3S-sLbifR9533GlBx9e-9" value="Real implementations" style="rounded=0;whiteSpace=wrap;html=1;fillColor=#fff2cc;strokeColor=none;shadow=0;glass=0;sketch=0;fontColor=#01010D;" vertex="1" parent="1">
          <mxGeometry x="300" y="170" width="130" height="23" as="geometry" />
        </mxCell>
        <mxCell id="z3S-sLbifR9533GlBx9e-10" value="&lt;div style=&quot;font-size: 12px&quot; align=&quot;left&quot;&gt;&lt;font style=&quot;font-size: 12px&quot;&gt;- Mostly &quot;Real&quot; implementations&lt;br&gt;&lt;/font&gt;&lt;/div&gt;&lt;div style=&quot;font-size: 12px&quot; align=&quot;left&quot;&gt;&lt;font style=&quot;font-size: 12px&quot;&gt;- Few to no mocks&lt;/font&gt;&lt;/div&gt;&lt;div style=&quot;font-size: 12px&quot; align=&quot;left&quot;&gt;- Can exercise &lt;br&gt;&lt;/div&gt;" style="text;html=1;strokeColor=none;fillColor=none;align=left;verticalAlign=middle;whiteSpace=wrap;rounded=0;shadow=0;sketch=0;fontSize=20;fontColor=#01010D;" vertex="1" parent="1">
          <mxGeometry x="730" y="110" width="190" height="100" as="geometry" />
        </mxCell>
      </root>
    </mxGraphModel>
  </diagram>
</mxfile>
